<?xml version="1.0" standalone="no"?><!DOCTYPE svg PUBLIC "-//W3C//DTD SVG 1.1//EN" "http://www.w3.org/Graphics/SVG/1.1/DTD/svg11.dtd"><svg t="1559054993202" class="icon" style="" viewBox="0 0 1244 1024" version="1.1" xmlns="http://www.w3.org/2000/svg" p-id="3001" xmlns:xlink="http://www.w3.org/1999/xlink" width="242.96875" height="200"><defs><style type="text/css"></style></defs><path d="M511.43645 13.72751C234.436972 13.72751 9.891032 238.27345 9.891032 515.272927c0 276.963353 224.545939 501.502067 501.545417 501.502067 276.992253 0 501.530967-224.538714 501.530967-501.502067C1012.967417 238.27345 788.428702 13.72751 511.43645 13.72751zM511.43645 992.325577c-263.481493 0-477.074324-213.592831-477.074324-477.045424 0-263.481493 213.592831-477.074324 477.074324-477.074324 263.488718 0 477.074324 213.592831 477.074324 477.074324C988.510774 778.732745 774.925168 992.325577 511.43645 992.325577z" p-id="3002" fill="#ffffff"></path><path d="M1243.380061 682.943625" p-id="3003" fill="#ffffff"></path><path d="M752.274776 295.358216l-481.691103 0c-28.863896 0-52.359613 23.481267-52.359613 52.359613l0 335.08852c0 28.856671 23.488492 52.352388 52.359613 52.352388l481.691103 0c28.863896 0 52.352388-23.495717 52.352388-52.352388L804.627164 347.710605C804.627164 318.839484 781.138672 295.358216 752.274776 295.358216L752.274776 295.358216zM592.905609 502.051168l189.504664-159.593142c0.281775-0.238425 0.411825-0.56355 0.657475-0.830876 0.39015 1.972426 0.614125 4.002653 0.614125 6.083454l0 335.08852c0 3.034502-0.56355 5.888379-1.365526 8.670006L592.905609 502.051168 592.905609 502.051168zM752.274776 316.296282c8.019756 0 15.280886 3.121202 20.836915 8.077556-1.495576 0.382925-2.940577 0.997051-4.197728 2.059127L511.429225 543.284273l-62.713046-52.814789c-0.15895-0.18785-0.223975-0.426275-0.4046-0.599675-0.440725-0.44795-0.997051-0.6358-1.488351-0.982601L253.930036 326.440189c-1.257151-1.054851-2.702152-1.676201-4.197728-2.044676 5.563254-4.978029 12.817159-8.099231 20.84414-8.099231L752.274776 316.296282 752.274776 316.296282zM239.176575 682.80635 239.176575 347.710605c0-2.088027 0.223975-4.118253 0.6069-6.083454 0.2601 0.252875 0.39015 0.59245 0.6647 0.830876l184.82286 155.655514L239.2994 684.099626C239.292175 683.658901 239.176575 683.23985 239.176575 682.80635L239.176575 682.80635zM270.583673 714.213448c-9.847682 0-18.553814-4.645678-24.312143-11.769534 2.666027-0.01445 5.310379-1.033176 7.340605-3.048952l187.748988-187.734538 63.327171 53.313314c0.50575 0.4335 1.090976 0.6358 1.632851 0.953701 0.39015 0.21675 0.736951 0.484075 1.141551 0.6647 1.278826 0.5202 2.615452 0.852551 3.966528 0.852551l0 0 0 0c1.351076 0 2.680477-0.33235 3.959303-0.852551 0.411825-0.1734 0.744176-0.44795 1.134326-0.65025 0.56355-0.3179 1.148776-0.5202 1.654526-0.968151l58.645368-49.368461 192.423566 192.401891c0.267325 0.267325 0.599675 0.368475 0.867001 0.585225-5.064729 3.518578-11.205983 5.606604-17.838538 5.606604L270.583673 714.198998 270.583673 714.213448zM270.583673 714.213448" p-id="3004" fill="#ffffff"></path></svg>