<?xml version="1.0" standalone="no"?><!DOCTYPE svg PUBLIC "-//W3C//DTD SVG 1.1//EN" "http://www.w3.org/Graphics/SVG/1.1/DTD/svg11.dtd"><svg t="1558250220327" class="icon" style="" viewBox="0 0 1024 1024" version="1.1" xmlns="http://www.w3.org/2000/svg" p-id="9898" xmlns:xlink="http://www.w3.org/1999/xlink" width="200" height="200"><defs><style type="text/css"></style></defs><path d="M472.36608 945.34144l397.824-397.824c19.968-19.968 20.0192-52.30592 0.10752-72.2176L473.71264 78.71488c-9.95328-9.9584-9.9328-26.12224 0.05632-36.11136 9.984-9.984 26.15296-10.0096 36.11136-0.0512l396.58496 396.57984c39.82336 39.82848 39.72096 104.49408-0.22528 144.44032l-397.824 397.824c-9.984 9.984-26.15296 10.0096-36.10624 0.0512-9.9584-9.95328-9.9328-26.11712 0.0512-36.10624z m-378.48064 0l397.824-397.824c19.968-19.968 20.0192-52.30592 0.10752-72.2176L95.232 78.71488c-9.95328-9.9584-9.9328-26.12224 0.05632-36.11136 9.984-9.984 26.15296-10.0096 36.11136-0.0512l396.58496 396.57984c39.82336 39.82848 39.72096 104.49408-0.22528 144.44032l-397.824 397.824c-9.984 9.984-26.15296 10.0096-36.10624 0.0512-9.9584-9.95328-9.9328-26.11712 0.0512-36.10624z" fill="#d4237a" p-id="9899"></path></svg>