<?xml version="1.0" standalone="no"?><!DOCTYPE svg PUBLIC "-//W3C//DTD SVG 1.1//EN" "http://www.w3.org/Graphics/SVG/1.1/DTD/svg11.dtd"><svg t="1558255686893" class="icon" style="" viewBox="0 0 1024 1024" version="1.1" xmlns="http://www.w3.org/2000/svg" p-id="11577" xmlns:xlink="http://www.w3.org/1999/xlink" width="200" height="200"><defs><style type="text/css"></style></defs><path d="M551.63392 945.34144c9.984 9.984 10.01472 26.15296 0.05632 36.11136-9.95328 9.95328-26.12224 9.9328-36.10624-0.05632l-397.824-397.824c-39.94624-39.94624-40.04864-104.61184-0.22528-144.4352L514.11968 42.5472c9.9584-9.95328 26.12224-9.9328 36.11136 0.05632 9.984 9.984 10.0096 26.15296 0.0512 36.11136L153.7024 475.29984c-19.9168 19.9168-19.8656 52.24448 0.11264 72.2176l397.824 397.824z m378.48064 0c9.984 9.984 10.01472 26.15296 0.05632 36.11136-9.95328 9.95328-26.12224 9.9328-36.10624-0.05632l-397.824-397.824c-39.94624-39.94624-40.04864-104.61184-0.22528-144.4352L892.60032 42.5472c9.9584-9.95328 26.12224-9.9328 36.11136 0.05632 9.984 9.984 10.0096 26.15296 0.0512 36.11136l-396.57984 396.58496c-19.9168 19.9168-19.8656 52.24448 0.11264 72.2176l397.824 397.824z" fill="#d81e06" p-id="11578"></path></svg>