<?xml version="1.0" standalone="no"?><!DOCTYPE svg PUBLIC "-//W3C//DTD SVG 1.1//EN" "http://www.w3.org/Graphics/SVG/1.1/DTD/svg11.dtd"><svg t="1559055190279" class="icon" style="" viewBox="0 0 1024 1024" version="1.1" xmlns="http://www.w3.org/2000/svg" p-id="8547" xmlns:xlink="http://www.w3.org/1999/xlink" width="200" height="200"><defs><style type="text/css"></style></defs><path d="M512 106.5c54.8 0 107.9 10.7 157.8 31.8 48.3 20.4 91.6 49.7 128.9 86.9 37.3 37.3 66.5 80.6 86.9 128.9 21.1 50 31.8 103.1 31.8 157.8s-10.7 107.9-31.8 157.8c-20.4 48.3-49.7 91.6-86.9 128.9-37.3 37.3-80.6 66.5-128.9 86.9-50 21.1-103.1 31.8-157.8 31.8-54.8 0-107.9-10.7-157.8-31.8-48.3-20.4-91.6-49.7-128.9-86.9-37.3-37.3-66.5-80.6-86.9-128.9-21.1-50-31.8-103.1-31.8-157.8s10.7-107.9 31.8-157.8c20.4-48.3 49.7-91.6 86.9-128.9 37.3-37.3 80.6-66.5 128.9-86.9 49.9-21.1 103-31.8 157.8-31.8m0-42.5C264.6 64 64 264.6 64 512s200.6 448 448 448 448-200.6 448-448S759.4 64 512 64z" p-id="8548" fill="#ffffff"></path><path d="M737 729H287c-9.4 0-17-7.6-17-17V312c0-9.4 7.6-17 17-17h450c7.2 0 13.7 4.6 16.1 11.4 0.9 2.7 1.2 5.4 0.8 8.1 0.1 0.8 0.2 1.7 0.2 2.5v395c-0.1 9.4-7.7 17-17.1 17z m-433-34h416V347.2L522.7 503.7c-6.1 4.9-14.8 4.9-20.9 0.2L359.9 394.8c-7.4-5.7-8.8-16.4-3.1-23.8 5.7-7.4 16.4-8.8 23.8-3.1l131.4 101L688.2 329H304v366z" p-id="8549" fill="#ffffff"></path></svg>