<svg version="1.1" width="1024" height="1024" viewBox="0 0 100 100" xmlns="http://www.w3.org/2000/svg"><path fill="#E2503B" d="M36.46,66.844V52.221h27.081v14.623H36.46z M67.915,52.221v14.623h27.083V52.221H67.915z M32.084,66.844V52.221H5.003 v14.623H32.084z M20.73,33.157v14.625h27.083V33.157H20.73z M52.188,33.157v14.625H79.27V33.157H52.188z M95,47.782V33.157H83.644 v14.625H95z M16.356,47.782V33.157H5v14.625H16.356z M52.188,85.905H79.27V71.281H52.188V85.905z M83.644,85.905H95V71.281H83.644 V85.905z M20.73,85.905h27.083V71.281H20.73V85.905z M5,85.905h11.356V71.281H5V85.905z M63.541,14.095H36.46v14.624h27.081V14.095z M94.998,14.095H67.915v14.624h27.083V14.095z M32.084,14.095H5.003v14.624h27.081V14.095z" class="active" style="fill: rgb(226, 80, 59);"></path></svg>